<?xml version="1.0" encoding="UTF-8" standalone="no"?>
<!-- Created with Inkscape (http://www.inkscape.org/) -->

<svg
   xmlns:dc="http://purl.org/dc/elements/1.1/"
   xmlns:cc="http://creativecommons.org/ns#"
   xmlns:rdf="http://www.w3.org/1999/02/22-rdf-syntax-ns#"
   xmlns:svg="http://www.w3.org/2000/svg"
   xmlns="http://www.w3.org/2000/svg"
   xmlns:sodipodi="http://sodipodi.sourceforge.net/DTD/sodipodi-0.dtd"
   xmlns:inkscape="http://www.inkscape.org/namespaces/inkscape"
   version="1.0"
   width="43.450001"
   height="45.34"
   id="svg38779"
   inkscape:version="0.47 r22583"
   sodipodi:docname="notify.svg">
  <metadata
     id="metadata2918">
    <rdf:RDF>
      <cc:Work
         rdf:about="">
        <dc:format>image/svg+xml</dc:format>
        <dc:type
           rdf:resource="http://purl.org/dc/dcmitype/StillImage" />
      </cc:Work>
    </rdf:RDF>
  </metadata>
  <sodipodi:namedview
     pagecolor="#ffffff"
     bordercolor="#666666"
     borderopacity="1"
     objecttolerance="10"
     gridtolerance="10"
     guidetolerance="10"
     inkscape:pageopacity="0"
     inkscape:pageshadow="2"
     inkscape:window-width="936"
     inkscape:window-height="733"
     id="namedview2916"
     showgrid="false"
     inkscape:zoom="2.9813319"
     inkscape:cx="89.724998"
     inkscape:cy="31.67"
     inkscape:window-x="205"
     inkscape:window-y="35"
     inkscape:window-maximized="0"
     inkscape:current-layer="svg38779"
     inkscape:snap-to-guides="true" />
  <defs
     id="defs38782">
    <inkscape:perspective
       sodipodi:type="inkscape:persp3d"
       inkscape:vp_x="0 : 31.67 : 1"
       inkscape:vp_y="0 : 1000 : 0"
       inkscape:vp_z="179.45 : 31.67 : 1"
       inkscape:persp3d-origin="89.724998 : 21.113333 : 1"
       id="perspective2920" />
  </defs>
  <path
     style="fill:#231f20;fill-opacity:1;fill-rule:nonzero;stroke:none"
     id="path23024"
     d="m 28.855707,24.506677 c 2.40733,5.778526 4.61821,8.265183 5.74532,9.247486 0.49531,0.429815 1.06992,0.192771 1.21751,-0.01845 2.21733,-3.217159 4.23635,-10.009348 5.54517,-15.361749 0.26102,-1.076383 1.21012,-0.793221 1.18614,0.296075 -0.0406,3.979943 -0.70744,8.564025 -1.46285,12.888927 -0.93987,5.372691 -2.13063,10.318335 -3.73276,12.958102 l -19.7964,0 c -0.32836,-1.642706 0.52389,-2.698798 1.87514,-3.156284 1.25255,-0.430737 4.96317,0.492536 4.96317,0.492536 -1.12066,-2.069755 -1.44718,-4.413447 -0.62351,-5.75639 0.61705,-1.00444 2.6001,-1.411196 4.03989,-1.158472 0.23152,0.04058 0.23612,-0.08486 0.0387,-0.192771 -3.59533,-1.968296 -5.4225,0.556177 -5.60974,1.770913 -0.21399,1.412118 -0.14758,1.882517 0.0175,3.166429 -4.80913,0.373552 -6.59665,-2.135241 -7.11408,-3.089874 -0.0913,-0.155877 -0.18724,-0.106993 -0.17894,0.119905 0.0637,1.329107 0.16971,4.966858 -0.23981,6.290431 -0.35879,1.183375 -0.88454,1.513577 -0.88454,1.513577 l -8.9449601,0 c 0.0314,-0.756328 0.39662,-2.271749 1.84101,-2.632388 1.71189,-0.427971 1.96553,-0.360639 2.6656,-2.237623 0.7222101,-1.936936 1.1990601,-4.388543 1.7414001,-8.433973 0.46578,-3.444056 1.13356,-6.962824 1.35494,-8.101927 0.0488,-0.245345 -0.012,-0.325589 -0.23428,-0.252724 -0.61522,0.201995 -2.2689901,0.549721 -5.9888301,0.284084 -4.65141,-0.332968 -5.2574,-3.717994 -5.19467,-5.919646 1.80872,-0.919585 8.87854,-4.076791 12.3982301,-7.8907122 0.17985,-0.329279 0.49623,-0.7415702 -0.1983,-0.7895322 -0.59492,-0.04335 -0.59308,-0.130052 -6.7497701,-0.354183 -0.0728,-0.0037 -0.16418,-0.05257 -0.0544,-0.130052 0.83288,-0.6013722 4.7003001,-3.2522098 9.3692301,-4.481703 2.21825,-0.5838482 2.95798,0 3.05575,1.3143502 0.0618,0.8476402 -0.0489,1.9424704 -0.12913,3.0585156 -0.0674,0.9334192 0.95371,0.7886102 1.11881,0.2647152 0,0 1.61412,-4.67263 3.9449,-6.4140284 1.35953,-1.01274115 3.48556,-1.41396315 4.27417,-0.724045 -1.11697,1.6131912 -2.20257,4.0435858 -2.49589,5.918725 -0.18077,1.1280354 -0.37908,2.9284646 -0.51283,4.1432008 -0.12819,1.217503 -0.63918,1.842857 -0.83749,2.435006 -0.19645,0.59215 0.13098,1.330953 0.57462,2.089125 l 4.01592,8.844421" />
  <path
     style="fill:#ffffff;fill-opacity:1;fill-rule:nonzero;stroke:none"
     id="path23028"
     d="m 14.320567,13.608734 -2.75321,0.157722 2.13339,1.74601 -0.69545,2.666516 2.3151,-1.488674 2.32063,1.488674 -0.69821,-2.666516 2.13339,-1.74601 -2.75506,-0.157722 -1.00075,-2.568747 -0.99983,2.568747 z" />
</svg>
